<?xml version="1.0" standalone="no"?>
<!DOCTYPE svg PUBLIC "-//W3C//DTD SVG 20010904//EN"
 "http://www.w3.org/TR/2001/REC-SVG-20010904/DTD/svg10.dtd">
<svg version="1.0" xmlns="http://www.w3.org/2000/svg"
 width="532.000000pt" height="469.000000pt" viewBox="0 0 532.000000 469.000000"
 preserveAspectRatio="xMidYMid meet">

<g transform="translate(0.000000,469.000000) scale(0.100000,-0.100000)"
fill="#000000" stroke="none">
<path d="M1355 3651 c-2 -2 12 -47 32 -100 19 -53 44 -125 55 -161 11 -36 27
-78 35 -94 l15 -29 464 8 c360 5 468 4 479 -5 13 -11 15 -74 15 -424 l0 -411
95 -73 c52 -40 100 -75 107 -77 7 -3 36 12 64 32 28 21 74 55 102 76 l52 39 0
408 c0 367 2 410 17 425 15 15 56 16 484 9 l467 -7 30 94 c17 52 46 137 66
188 19 52 33 97 31 100 -6 5 -2605 8 -2610 2z"/>
<path d="M3911 3419 c-6 -18 -9 -34 -7 -36 2 -2 9 10 15 28 6 18 9 34 7 36 -2
2 -9 -10 -15 -28z"/>
<path d="M1400 3425 c0 -3 14 -46 31 -95 l32 -90 151 0 c83 0 158 5 166 10 10
6 -38 10 -145 10 l-161 0 -29 81 c-25 69 -45 106 -45 84z"/>
<path d="M3880 3358 c0 -7 -7 -32 -16 -55 l-17 -43 -104 0 c-57 0 -102 -4 -99
-8 2 -4 52 -9 109 -10 l105 -3 18 53 c9 29 19 59 22 66 2 6 -1 12 -7 12 -6 0
-11 -5 -11 -12z"/>
<path d="M1452 2613 l2 -248 6 215 c3 118 9 209 13 202 5 -7 8 -36 7 -65 -1
-28 -1 -338 -1 -687 l1 -636 91 -64 c50 -36 139 -98 198 -138 l106 -72 5 432
c3 238 7 434 8 436 13 14 64 -11 147 -74 55 -42 118 -87 140 -101 22 -15 64
-44 92 -65 29 -21 55 -39 57 -39 3 0 19 -13 37 -30 17 -16 37 -29 45 -29 8 0
14 -5 14 -11 0 -8 5 -7 15 1 18 15 37 2 41 -25 2 -13 -1 -14 -12 -4 -7 6 -11
15 -8 20 3 5 0 9 -5 9 -13 0 -15 -17 -2 -24 4 -3 6 -28 3 -56 -3 -34 -1 -50 7
-50 6 0 15 8 18 17 6 15 7 15 14 -3 6 -15 8 -11 10 16 l2 35 7 -40 c6 -34 7
-29 9 34 1 82 4 78 -103 164 -21 18 -50 41 -64 53 l-25 21 36 -1 c30 -1 34 1
24 12 -9 11 -7 17 8 28 18 13 18 14 -1 36 -16 18 -16 20 -2 15 11 -4 18 1 22
19 6 23 26 34 26 14 0 -24 20 -7 28 23 8 30 27 41 27 15 0 -6 8 -12 17 -14 9
-1 44 -19 77 -39 62 -39 105 -42 131 -10 20 24 107 76 121 72 8 -2 11 -2 7 0
-13 7 -9 23 5 23 6 0 22 -16 34 -35 15 -22 28 -32 38 -29 9 4 18 -1 21 -11 5
-13 9 -14 15 -4 6 10 10 9 15 -6 4 -11 13 -27 21 -36 12 -14 12 -17 -2 -22 -8
-4 -15 -11 -15 -17 0 -7 6 -7 21 0 11 6 28 10 37 8 13 -2 8 -9 -18 -25 -19
-12 -46 -32 -60 -45 -58 -54 -153 -128 -162 -128 -14 0 -3 -149 11 -163 6 -6
11 -20 11 -31 0 -18 2 -19 11 -6 8 11 9 5 6 -25 l-5 -40 13 30 c11 25 13 27
17 10 3 -11 7 31 9 93 2 61 1 112 -3 112 -5 0 -8 -4 -8 -10 0 -5 -5 -10 -11
-10 -8 0 -7 5 1 15 7 9 20 13 28 10 9 -3 52 23 106 63 50 38 125 92 166 120
41 28 112 78 158 112 69 50 113 71 124 58 1 -2 5 -177 8 -390 l5 -387 125 89
c69 49 158 112 198 140 l72 52 0 516 c0 285 3 574 6 644 7 143 3 168 -24 147
-15 -13 -16 -12 -3 4 7 9 20 17 27 17 11 0 14 -44 17 -227 l2 -228 3 248 c1
136 -1 247 -5 247 -5 0 -59 -38 -122 -83 -107 -77 -138 -107 -111 -107 6 0 8
6 4 13 -4 6 -4 9 0 5 5 -4 38 15 75 41 76 55 91 64 91 57 0 -3 -36 -31 -81
-62 -44 -31 -86 -65 -92 -75 -7 -11 -18 -19 -25 -19 -7 0 -33 -13 -57 -30 -24
-16 -50 -27 -58 -24 -8 3 -18 1 -22 -5 -4 -7 1 -9 12 -5 26 8 -28 -38 -112
-96 -38 -26 -127 -90 -197 -141 -70 -52 -153 -112 -185 -134 -31 -22 -93 -67
-137 -100 -45 -33 -105 -75 -133 -93 l-53 -34 -52 34 c-29 18 -109 75 -178
125 -69 51 -174 128 -233 170 -60 43 -156 112 -213 153 -145 104 -342 245
-428 306 -40 28 -78 48 -85 46 -8 -3 -11 0 -7 7 4 6 10 11 14 11 6 0 146 -95
187 -127 31 -24 126 -83 134 -83 5 0 12 -6 14 -12 3 -7 6 -8 6 -2 1 6 -36 36
-81 68 -100 69 -189 133 -203 144 -26 20 -74 52 -79 52 -3 0 -5 -111 -4 -247z
m945 -675 c-3 -8 -6 -5 -6 6 -1 11 2 17 5 13 3 -3 4 -12 1 -19z m-40 -54 c-3
-3 -12 -4 -19 -1 -8 3 -5 6 6 6 11 1 17 -2 13 -5z m725 -10 c-10 -7 -21 -9
-28 -3 -6 5 -15 5 -19 1 -5 -4 -6 -2 -3 3 4 6 20 10 37 11 27 1 29 0 13 -12z
m-722 -40 c0 -8 -4 -12 -10 -9 -5 3 -10 10 -10 16 0 5 5 9 10 9 6 0 10 -7 10
-16z"/>
<path d="M3580 2660 c-9 -6 -10 -10 -3 -10 6 0 15 5 18 10 8 12 4 12 -15 0z"/>
<path d="M3515 2615 c-16 -13 -24 -24 -17 -25 6 0 12 5 12 11 0 5 4 8 9 4 6
-3 15 4 21 15 14 26 11 25 -25 -5z"/>
</g>
</svg>
